<?xml version="1.0" encoding="UTF-8" standalone="no"?>
<svg width="125.79mm" height="188.686mm"
 viewBox="0.5 0.5 416 624"
 xmlns="http://www.w3.org/2000/svg" xmlns:xlink="http://www.w3.org/1999/xlink" version="1.2" baseProfile="tiny">
<title>QM diagram</title>
<desc>QM diagram</desc>
<defs>
<linearGradient gradientUnits="userSpaceOnUse" x1="0" y1="0" x2="0" y2="22" id="gradient1">
    <stop offset="0" stop-color="#a1a1ff" stop-opacity="0.501961" />
    <stop offset="1" stop-color="#2222ff" stop-opacity="0.501961" />
</linearGradient>
<linearGradient gradientUnits="userSpaceOnUse" x1="0" y1="0" x2="0" y2="22" id="gradient2">
    <stop offset="0" stop-color="#ff7f7f" stop-opacity="0.501961" />
    <stop offset="1" stop-color="#ff0000" stop-opacity="0.501961" />
</linearGradient>
<linearGradient gradientUnits="userSpaceOnUse" x1="0" y1="0" x2="0" y2="22" id="gradient3">
    <stop offset="0" stop-color="#c0c0c0" stop-opacity="0.501961" />
    <stop offset="1" stop-color="#808080" stop-opacity="0.501961" />
</linearGradient>
</defs>
<g fill="none" stroke="black" stroke-width="1" fill-rule="evenodd" stroke-linecap="square" stroke-linejoin="bevel" >

<g fill="none" stroke="#000000" stroke-opacity="1" stroke-width="1" stroke-linecap="square" stroke-linejoin="bevel" transform="matrix(1,0,0,1,0,0)"
font-family="Segoe UI" font-size="10.5" font-weight="400" font-style="normal" 
>
</g>

<g fill="none" stroke="#000000" stroke-opacity="1" stroke-width="1" stroke-linecap="square" stroke-linejoin="bevel" transform="matrix(1,0,0,1,16,48)"
font-family="Segoe UI" font-size="10.5" font-weight="400" font-style="normal" 
>
</g>

<g fill="url(#gradient1)" stroke="#11117f" stroke-opacity="1" stroke-width="1" stroke-linecap="butt" stroke-linejoin="round" transform="matrix(1,0,0,1,16,48)"
font-family="Segoe UI" font-size="10.5" font-weight="400" font-style="normal" 
>
<path vector-effect="none" fill-rule="evenodd" d="M352.5,22.5 L352.5,16.5 C352.5,7.66344 345.337,0.5 336.5,0.5 L16.5,0.5 C7.66344,0.5 0.5,7.66344 0.5,16.5 L0.5,22.5"/>
</g>

<g fill="#a1a1ff" fill-opacity="0.501961" stroke="#11117f" stroke-opacity="1" stroke-width="1" stroke-linecap="butt" stroke-linejoin="round" transform="matrix(1,0,0,1,16,48)"
font-family="Segoe UI" font-size="10.5" font-weight="400" font-style="normal" 
>
<path vector-effect="none" fill-rule="evenodd" d="M0.5,22.5 L0.5,544.5 C0.5,553.337 7.66344,560.5 16.5,560.5 L336.5,560.5 C345.337,560.5 352.5,553.337 352.5,544.5 L352.5,22.5"/>
</g>

<g fill="#a1a1ff" fill-opacity="0.501961" stroke="#11117f" stroke-opacity="1" stroke-width="1" stroke-linecap="butt" stroke-linejoin="round" transform="matrix(1,0,0,1,16,48)"
font-family="Arial" font-size="12" font-weight="700" font-style="normal" 
>
<text fill="#11117f" fill-opacity="1" stroke="none" xml:space="preserve" x="159.5" y="15.5" font-family="Arial" font-size="12" font-weight="700" font-style="normal" 
 >active</text>
</g>

<g fill="none" stroke="#000000" stroke-opacity="1" stroke-width="1" stroke-linecap="square" stroke-linejoin="bevel" transform="matrix(1,0,0,1,16,48)"
font-family="Segoe UI" font-size="10.5" font-weight="400" font-style="normal" 
>
</g>

<g fill="none" stroke="#000000" stroke-opacity="1" stroke-width="1" stroke-linecap="square" stroke-linejoin="bevel" transform="matrix(1,0,0,1,32,160)"
font-family="Segoe UI" font-size="10.5" font-weight="400" font-style="normal" 
>
</g>

<g fill="url(#gradient2)" stroke="#7f0000" stroke-opacity="1" stroke-width="1" stroke-linecap="butt" stroke-linejoin="round" transform="matrix(1,0,0,1,32,160)"
font-family="Segoe UI" font-size="10.5" font-weight="400" font-style="normal" 
>
<path vector-effect="none" fill-rule="evenodd" d="M272.5,22.5 L272.5,16.5 C272.5,7.66344 265.337,0.5 256.5,0.5 L16.5,0.5 C7.66344,0.5 0.5,7.66344 0.5,16.5 L0.5,22.5"/>
</g>

<g fill="#ff7f7f" fill-opacity="0.501961" stroke="#7f0000" stroke-opacity="1" stroke-width="1" stroke-linecap="butt" stroke-linejoin="round" transform="matrix(1,0,0,1,32,160)"
font-family="Segoe UI" font-size="10.5" font-weight="400" font-style="normal" 
>
<path vector-effect="none" fill-rule="evenodd" d="M0.5,22.5 L0.5,192.5 C0.5,201.337 7.66344,208.5 16.5,208.5 L256.5,208.5 C265.337,208.5 272.5,201.337 272.5,192.5 L272.5,22.5"/>
</g>

<g fill="#ff7f7f" fill-opacity="0.501961" stroke="#7f0000" stroke-opacity="1" stroke-width="1" stroke-linecap="butt" stroke-linejoin="round" transform="matrix(1,0,0,1,32,160)"
font-family="Arial" font-size="12" font-weight="700" font-style="normal" 
>
<text fill="#7f0000" fill-opacity="1" stroke="none" xml:space="preserve" x="115.5" y="15.5" font-family="Arial" font-size="12" font-weight="700" font-style="normal" 
 >serving</text>
</g>

<g fill="#ff7f7f" fill-opacity="0.501961" stroke="#7f0000" stroke-opacity="1" stroke-width="1" stroke-linecap="butt" stroke-linejoin="round" transform="matrix(1,0,0,1,32,160)"
font-family="Arial" font-size="12" font-weight="400" font-style="normal" 
>
<text fill="#7f0000" fill-opacity="1" stroke="none" xml:space="preserve" x="4" y="35" font-family="Arial" font-size="12" font-weight="400" font-style="normal" 
 >e / give pending permitions to eat</text>
</g>

<g fill="none" stroke="#000000" stroke-opacity="1" stroke-width="1" stroke-linecap="square" stroke-linejoin="bevel" transform="matrix(1,0,0,1,32,160)"
font-family="Segoe UI" font-size="10.5" font-weight="400" font-style="normal" 
>
</g>

<g fill="none" stroke="#000000" stroke-opacity="1" stroke-width="1" stroke-linecap="square" stroke-linejoin="bevel" transform="matrix(1,0,0,1,32,400)"
font-family="Segoe UI" font-size="10.5" font-weight="400" font-style="normal" 
>
</g>

<g fill="url(#gradient3)" stroke="#404040" stroke-opacity="1" stroke-width="1" stroke-linecap="butt" stroke-linejoin="round" transform="matrix(1,0,0,1,32,400)"
font-family="Segoe UI" font-size="10.5" font-weight="400" font-style="normal" 
>
<path vector-effect="none" fill-rule="evenodd" d="M272.5,22.5 L272.5,16.5 C272.5,7.66344 265.337,0.5 256.5,0.5 L16.5,0.5 C7.66344,0.5 0.5,7.66344 0.5,16.5 L0.5,22.5"/>
</g>

<g fill="#c0c0c0" fill-opacity="0.501961" stroke="#404040" stroke-opacity="1" stroke-width="1" stroke-linecap="butt" stroke-linejoin="round" transform="matrix(1,0,0,1,32,400)"
font-family="Segoe UI" font-size="10.5" font-weight="400" font-style="normal" 
>
<path vector-effect="none" fill-rule="evenodd" d="M0.5,22.5 L0.5,176.5 C0.5,185.337 7.66344,192.5 16.5,192.5 L256.5,192.5 C265.337,192.5 272.5,185.337 272.5,176.5 L272.5,22.5"/>
</g>

<g fill="#c0c0c0" fill-opacity="0.501961" stroke="#404040" stroke-opacity="1" stroke-width="1" stroke-linecap="butt" stroke-linejoin="round" transform="matrix(1,0,0,1,32,400)"
font-family="Arial" font-size="12" font-weight="700" font-style="normal" 
>
<text fill="#404040" fill-opacity="1" stroke="none" xml:space="preserve" x="115.5" y="15.5" font-family="Arial" font-size="12" font-weight="700" font-style="normal" 
 >paused</text>
</g>

<g fill="#c0c0c0" fill-opacity="0.501961" stroke="#404040" stroke-opacity="1" stroke-width="1" stroke-linecap="butt" stroke-linejoin="round" transform="matrix(1,0,0,1,32,400)"
font-family="Arial" font-size="12" font-weight="400" font-style="normal" 
>
<text fill="#404040" fill-opacity="1" stroke="none" xml:space="preserve" x="4" y="35" font-family="Arial" font-size="12" font-weight="400" font-style="normal" 
 >e / display-paused</text>
<text fill="#404040" fill-opacity="1" stroke="none" xml:space="preserve" x="4" y="59" font-family="Arial" font-size="12" font-weight="400" font-style="normal" 
 >x / display-not-paused</text>
</g>

<g fill="none" stroke="#000000" stroke-opacity="1" stroke-width="1" stroke-linecap="square" stroke-linejoin="bevel" transform="matrix(1,0,0,1,32,400)"
font-family="Segoe UI" font-size="10.5" font-weight="400" font-style="normal" 
>
</g>

<g fill="none" stroke="#000000" stroke-opacity="1" stroke-width="1" stroke-linecap="square" stroke-linejoin="bevel" transform="matrix(1,0,0,1,16,32)"
font-family="Segoe UI" font-size="10.5" font-weight="400" font-style="normal" 
>
</g>

<g fill="none" stroke="#e60000" stroke-opacity="1" stroke-width="1" stroke-linecap="round" stroke-linejoin="round" transform="matrix(1,0,0,1,16,32)"
font-family="Segoe UI" font-size="10.5" font-weight="400" font-style="normal" 
>
<polyline fill="none" vector-effect="none" points="0.5,0.5 368.5,0.5 " />
<polyline fill="none" vector-effect="none" points="368.5,0.5 368.5,160.5 " />
<polyline fill="none" vector-effect="none" points="368.5,160.5 288.5,160.5 " />
</g>

<g fill="#000000" fill-opacity="1" stroke="#e60000" stroke-opacity="1" stroke-width="1" stroke-linecap="round" stroke-linejoin="round" transform="matrix(1,0,0,1,16,32)"
font-family="Arial" font-size="12" font-weight="400" font-style="normal" 
>
<circle cx="0.5" cy="0.5" r="6"/>
</g>

<g fill="none" stroke="#e60000" stroke-opacity="1" stroke-width="1" stroke-linecap="round" stroke-linejoin="round" transform="matrix(1,0,0,1,16,32)"
font-family="Arial" font-size="12" font-weight="400" font-style="normal" 
>
<polyline fill="none" vector-effect="none" points="297.5,155.5 288.5,160.5 297.5,165.5 " />
<text fill="#e60000" fill-opacity="1" stroke="none" xml:space="preserve" x="4" y="-5" font-family="Arial" font-size="12" font-weight="400" font-style="normal" 
 > /  </text>
</g>

<g fill="none" stroke="#000000" stroke-opacity="1" stroke-width="1" stroke-linecap="square" stroke-linejoin="bevel" transform="matrix(1,0,0,1,16,32)"
font-family="Segoe UI" font-size="10.5" font-weight="400" font-style="normal" 
>
</g>

<g fill="none" stroke="#000000" stroke-opacity="1" stroke-width="1" stroke-linecap="square" stroke-linejoin="bevel" transform="matrix(1,0,0,1,16,96)"
font-family="Segoe UI" font-size="10.5" font-weight="400" font-style="normal" 
>
</g>

<g fill="none" stroke="#e60000" stroke-opacity="1" stroke-width="1" stroke-linecap="round" stroke-linejoin="round" transform="matrix(1,0,0,1,16,96)"
font-family="Segoe UI" font-size="10.5" font-weight="400" font-style="normal" 
>
<polyline fill="none" vector-effect="none" points="0.5,0.5 240.5,0.5 " />
</g>

<g fill="#ffffff" fill-opacity="1" stroke="#e60000" stroke-opacity="1" stroke-width="1" stroke-linecap="round" stroke-linejoin="round" transform="matrix(1,0,0,1,16,96)"
font-family="Arial" font-size="12" font-weight="400" font-style="normal" 
>
<rect x="234.5" y="-5.5" width="12" height="12"/>
<text fill="#e60000" fill-opacity="1" stroke="none" xml:space="preserve" x="4" y="-5" font-family="Arial" font-size="12" font-weight="400" font-style="normal" 
 >TEST /  </text>
</g>

<g fill="none" stroke="#000000" stroke-opacity="1" stroke-width="1" stroke-linecap="square" stroke-linejoin="bevel" transform="matrix(1,0,0,1,16,96)"
font-family="Segoe UI" font-size="10.5" font-weight="400" font-style="normal" 
>
</g>

<g fill="none" stroke="#000000" stroke-opacity="1" stroke-width="1" stroke-linecap="square" stroke-linejoin="bevel" transform="matrix(1,0,0,1,16,128)"
font-family="Segoe UI" font-size="10.5" font-weight="400" font-style="normal" 
>
</g>

<g fill="none" stroke="#e60000" stroke-opacity="1" stroke-width="1" stroke-linecap="round" stroke-linejoin="round" transform="matrix(1,0,0,1,16,128)"
font-family="Segoe UI" font-size="10.5" font-weight="400" font-style="normal" 
>
<polyline fill="none" vector-effect="none" points="0.5,0.5 240.5,0.5 " />
</g>

<g fill="#ffffff" fill-opacity="1" stroke="#e60000" stroke-opacity="1" stroke-width="1" stroke-linecap="round" stroke-linejoin="round" transform="matrix(1,0,0,1,16,128)"
font-family="Arial" font-size="12" font-weight="400" font-style="normal" 
>
<rect x="234.5" y="-5.5" width="12" height="12"/>
<text fill="#e60000" fill-opacity="1" stroke="none" xml:space="preserve" x="4" y="-5" font-family="Arial" font-size="12" font-weight="400" font-style="normal" 
 >EAT / error</text>
</g>

<g fill="none" stroke="#000000" stroke-opacity="1" stroke-width="1" stroke-linecap="square" stroke-linejoin="bevel" transform="matrix(1,0,0,1,16,128)"
font-family="Segoe UI" font-size="10.5" font-weight="400" font-style="normal" 
>
</g>

<g fill="none" stroke="#000000" stroke-opacity="1" stroke-width="1" stroke-linecap="square" stroke-linejoin="bevel" transform="matrix(1,0,0,1,160,224)"
font-family="Segoe UI" font-size="10.5" font-weight="400" font-style="normal" 
>
</g>

<g fill="none" stroke="#e60000" stroke-opacity="1" stroke-width="1" stroke-linecap="round" stroke-linejoin="round" transform="matrix(1,0,0,1,160,224)"
font-family="Segoe UI" font-size="10.5" font-weight="400" font-style="normal" 
>
<polyline fill="none" vector-effect="none" points="0.5,0.5 96.5,0.5 " />
</g>

<g fill="#ffffff" fill-opacity="1" stroke="#e60000" stroke-opacity="1" stroke-width="1" stroke-linecap="round" stroke-linejoin="round" transform="matrix(1,0,0,1,160,224)"
font-family="Arial" font-size="12" font-weight="400" font-style="normal" 
>
<path vector-effect="none" fill-rule="evenodd" d="M-10.5,0.5 L0.5,-10.5 L11.5,0.5 L0.5,11.5 L-10.5,0.5"/>
<rect x="90.5" y="-5.5" width="12" height="12"/>
</g>

<g fill="#ffffff" fill-opacity="1" stroke="#e60000" stroke-opacity="1" stroke-width="1" stroke-linecap="round" stroke-linejoin="round" transform="matrix(1,0,0,1,160,224)"
font-family="Arial" font-size="12" font-weight="400" font-style="normal" 
>
<text fill="#e60000" fill-opacity="1" stroke="none" xml:space="preserve" x="12" y="11" font-family="Arial" font-size="12" font-weight="400" font-style="normal" 
 >[bothfree] /</text>
<text fill="#e60000" fill-opacity="1" stroke="none" xml:space="preserve" x="12" y="25" font-family="Arial" font-size="12" font-weight="400" font-style="normal" 
 >  me-&gt;fork[m]</text>
</g>

<g fill="#ffffff" fill-opacity="1" stroke="#e60000" stroke-opacity="1" stroke-width="1" stroke-linecap="round" stroke-linejoin="round" transform="matrix(1,0,0,1,160,224)"
font-family="Arial" font-size="12" font-weight="400" font-style="normal" 
>
</g>

<g fill="#ffffff" fill-opacity="1" stroke="#e60000" stroke-opacity="1" stroke-width="1" stroke-linecap="round" stroke-linejoin="round" transform="matrix(1,0,0,1,0,0)"
font-family="Arial" font-size="12" font-weight="400" font-style="normal" 
>
</g>

<g fill="#ffffff" fill-opacity="1" stroke="#e60000" stroke-opacity="1" stroke-width="1" stroke-linecap="round" stroke-linejoin="round" transform="matrix(1,0,0,1,160,224)"
font-family="Arial" font-size="12" font-weight="400" font-style="normal" 
>
</g>

<g fill="none" stroke="#000000" stroke-opacity="1" stroke-width="1" stroke-linecap="square" stroke-linejoin="bevel" transform="matrix(1,0,0,1,160,224)"
font-family="Segoe UI" font-size="10.5" font-weight="400" font-style="normal" 
>
</g>

<g fill="none" stroke="#000000" stroke-opacity="1" stroke-width="1" stroke-linecap="square" stroke-linejoin="bevel" transform="matrix(1,0,0,1,160,224)"
font-family="Segoe UI" font-size="10.5" font-weight="400" font-style="normal" 
>
</g>

<g fill="none" stroke="#e60000" stroke-opacity="1" stroke-width="1" stroke-linecap="round" stroke-linejoin="round" transform="matrix(1,0,0,1,160,224)"
font-family="Segoe UI" font-size="10.5" font-weight="400" font-style="normal" 
>
<polyline fill="none" vector-effect="none" points="0.5,0.5 0.5,32.5 " />
<polyline fill="none" vector-effect="none" points="0.5,32.5 96.5,32.5 " />
</g>

<g fill="#ffffff" fill-opacity="1" stroke="#e60000" stroke-opacity="1" stroke-width="1" stroke-linecap="round" stroke-linejoin="round" transform="matrix(1,0,0,1,160,224)"
font-family="Arial" font-size="12" font-weight="400" font-style="normal" 
>
<path vector-effect="none" fill-rule="evenodd" d="M-10.5,0.5 L0.5,-10.5 L11.5,0.5 L0.5,11.5 L-10.5,0.5"/>
<rect x="90.5" y="26.5" width="12" height="12"/>
</g>

<g fill="#ffffff" fill-opacity="1" stroke="#e60000" stroke-opacity="1" stroke-width="1" stroke-linecap="round" stroke-linejoin="round" transform="matrix(1,0,0,1,160,224)"
font-family="Arial" font-size="12" font-weight="400" font-style="normal" 
>
<text fill="#e60000" fill-opacity="1" stroke="none" xml:space="preserve" x="12" y="43" font-family="Arial" font-size="12" font-weight="400" font-style="normal" 
 >[else] /</text>
<text fill="#e60000" fill-opacity="1" stroke="none" xml:space="preserve" x="12" y="57" font-family="Arial" font-size="12" font-weight="400" font-style="normal" 
 >  me-</text>
</g>

<g fill="#ffffff" fill-opacity="1" stroke="#e60000" stroke-opacity="1" stroke-width="1" stroke-linecap="round" stroke-linejoin="round" transform="matrix(1,0,0,1,160,224)"
font-family="Arial" font-size="12" font-weight="400" font-style="normal" 
>
</g>

<g fill="#ffffff" fill-opacity="1" stroke="#e60000" stroke-opacity="1" stroke-width="1" stroke-linecap="round" stroke-linejoin="round" transform="matrix(1,0,0,1,0,0)"
font-family="Arial" font-size="12" font-weight="400" font-style="normal" 
>
</g>

<g fill="#ffffff" fill-opacity="1" stroke="#e60000" stroke-opacity="1" stroke-width="1" stroke-linecap="round" stroke-linejoin="round" transform="matrix(1,0,0,1,160,224)"
font-family="Arial" font-size="12" font-weight="400" font-style="normal" 
>
</g>

<g fill="none" stroke="#000000" stroke-opacity="1" stroke-width="1" stroke-linecap="square" stroke-linejoin="bevel" transform="matrix(1,0,0,1,160,224)"
font-family="Segoe UI" font-size="10.5" font-weight="400" font-style="normal" 
>
</g>

<g fill="none" stroke="#000000" stroke-opacity="1" stroke-width="1" stroke-linecap="square" stroke-linejoin="bevel" transform="matrix(1,0,0,1,32,224)"
font-family="Segoe UI" font-size="10.5" font-weight="400" font-style="normal" 
>
</g>

<g fill="none" stroke="#e60000" stroke-opacity="1" stroke-width="1" stroke-linecap="round" stroke-linejoin="round" transform="matrix(1,0,0,1,32,224)"
font-family="Segoe UI" font-size="10.5" font-weight="400" font-style="normal" 
>
<polyline fill="none" vector-effect="none" points="0.5,0.5 128.5,0.5 " />
</g>

<g fill="#ffffff" fill-opacity="1" stroke="#e60000" stroke-opacity="1" stroke-width="1" stroke-linecap="round" stroke-linejoin="round" transform="matrix(1,0,0,1,32,224)"
font-family="Arial" font-size="12" font-weight="400" font-style="normal" 
>
<path vector-effect="none" fill-rule="evenodd" d="M117.5,0.5 L128.5,-10.5 L139.5,0.5 L128.5,11.5 L117.5,0.5"/>
</g>

<g fill="none" stroke="#e60000" stroke-opacity="1" stroke-width="1" stroke-linecap="round" stroke-linejoin="round" transform="matrix(1,0,0,1,32,224)"
font-family="Arial" font-size="12" font-weight="400" font-style="normal" 
>
<polyline fill="none" vector-effect="none" points="108.5,-4.5 117.5,0.5 108.5,5.5 " />
</g>

<g fill="none" stroke="#e60000" stroke-opacity="1" stroke-width="1" stroke-linecap="round" stroke-linejoin="round" transform="matrix(1,0,0,1,32,224)"
font-family="Arial" font-size="12" font-weight="400" font-style="normal" 
>
<text fill="#e60000" fill-opacity="1" stroke="none" xml:space="preserve" x="4" y="-5" font-family="Arial" font-size="12" font-weight="400" font-style="normal" 
 >HUNGRY /</text>
<text fill="#e60000" fill-opacity="1" stroke="none" xml:space="preserve" x="4" y="9" font-family="Arial" font-size="12" font-weight="400" font-style="normal" 
 >  uint8_t n =</text>
</g>

<g fill="none" stroke="#e60000" stroke-opacity="1" stroke-width="1" stroke-linecap="round" stroke-linejoin="round" transform="matrix(1,0,0,1,32,224)"
font-family="Arial" font-size="12" font-weight="400" font-style="normal" 
>
</g>

<g fill="none" stroke="#e60000" stroke-opacity="1" stroke-width="1" stroke-linecap="round" stroke-linejoin="round" transform="matrix(1,0,0,1,0,0)"
font-family="Arial" font-size="12" font-weight="400" font-style="normal" 
>
</g>

<g fill="none" stroke="#e60000" stroke-opacity="1" stroke-width="1" stroke-linecap="round" stroke-linejoin="round" transform="matrix(1,0,0,1,32,224)"
font-family="Arial" font-size="12" font-weight="400" font-style="normal" 
>
</g>

<g fill="none" stroke="#000000" stroke-opacity="1" stroke-width="1" stroke-linecap="square" stroke-linejoin="bevel" transform="matrix(1,0,0,1,32,224)"
font-family="Segoe UI" font-size="10.5" font-weight="400" font-style="normal" 
>
</g>

<g fill="none" stroke="#000000" stroke-opacity="1" stroke-width="1" stroke-linecap="square" stroke-linejoin="bevel" transform="matrix(1,0,0,1,32,288)"
font-family="Segoe UI" font-size="10.5" font-weight="400" font-style="normal" 
>
</g>

<g fill="none" stroke="#e60000" stroke-opacity="1" stroke-width="1" stroke-linecap="round" stroke-linejoin="round" transform="matrix(1,0,0,1,32,288)"
font-family="Segoe UI" font-size="10.5" font-weight="400" font-style="normal" 
>
<polyline fill="none" vector-effect="none" points="0.5,0.5 128.5,0.5 " />
</g>

<g fill="#ffffff" fill-opacity="1" stroke="#e60000" stroke-opacity="1" stroke-width="1" stroke-linecap="round" stroke-linejoin="round" transform="matrix(1,0,0,1,32,288)"
font-family="Arial" font-size="12" font-weight="400" font-style="normal" 
>
<rect x="122.5" y="-5.5" width="12" height="12"/>
</g>

<g fill="#ffffff" fill-opacity="1" stroke="#e60000" stroke-opacity="1" stroke-width="1" stroke-linecap="round" stroke-linejoin="round" transform="matrix(1,0,0,1,32,288)"
font-family="Arial" font-size="12" font-weight="400" font-style="normal" 
>
<text fill="#e60000" fill-opacity="1" stroke="none" xml:space="preserve" x="4" y="-5" font-family="Arial" font-size="12" font-weight="400" font-style="normal" 
 >DONE /</text>
<text fill="#e60000" fill-opacity="1" stroke="none" xml:space="preserve" x="4" y="9" font-family="Arial" font-size="12" font-weight="400" font-style="normal" 
 >  uint8_t n =</text>
</g>

<g fill="#ffffff" fill-opacity="1" stroke="#e60000" stroke-opacity="1" stroke-width="1" stroke-linecap="round" stroke-linejoin="round" transform="matrix(1,0,0,1,32,288)"
font-family="Arial" font-size="12" font-weight="400" font-style="normal" 
>
</g>

<g fill="#ffffff" fill-opacity="1" stroke="#e60000" stroke-opacity="1" stroke-width="1" stroke-linecap="round" stroke-linejoin="round" transform="matrix(1,0,0,1,0,0)"
font-family="Arial" font-size="12" font-weight="400" font-style="normal" 
>
</g>

<g fill="#ffffff" fill-opacity="1" stroke="#e60000" stroke-opacity="1" stroke-width="1" stroke-linecap="round" stroke-linejoin="round" transform="matrix(1,0,0,1,32,288)"
font-family="Arial" font-size="12" font-weight="400" font-style="normal" 
>
</g>

<g fill="none" stroke="#000000" stroke-opacity="1" stroke-width="1" stroke-linecap="square" stroke-linejoin="bevel" transform="matrix(1,0,0,1,32,288)"
font-family="Segoe UI" font-size="10.5" font-weight="400" font-style="normal" 
>
</g>

<g fill="none" stroke="#000000" stroke-opacity="1" stroke-width="1" stroke-linecap="square" stroke-linejoin="bevel" transform="matrix(1,0,0,1,32,336)"
font-family="Segoe UI" font-size="10.5" font-weight="400" font-style="normal" 
>
</g>

<g fill="none" stroke="#e60000" stroke-opacity="1" stroke-width="1" stroke-linecap="round" stroke-linejoin="round" transform="matrix(1,0,0,1,32,336)"
font-family="Segoe UI" font-size="10.5" font-weight="400" font-style="normal" 
>
<polyline fill="none" vector-effect="none" points="0.5,0.5 288.5,0.5 " />
<polyline fill="none" vector-effect="none" points="288.5,0.5 288.5,96.5 " />
<polyline fill="none" vector-effect="none" points="288.5,96.5 272.5,96.5 " />
</g>

<g fill="none" stroke="#e60000" stroke-opacity="1" stroke-width="1" stroke-linecap="round" stroke-linejoin="round" transform="matrix(1,0,0,1,32,336)"
font-family="Arial" font-size="12" font-weight="400" font-style="normal" 
>
<polyline fill="none" vector-effect="none" points="281.5,91.5 272.5,96.5 281.5,101.5 " />
<text fill="#e60000" fill-opacity="1" stroke="none" xml:space="preserve" x="4" y="-5" font-family="Arial" font-size="12" font-weight="400" font-style="normal" 
 >PAUSE</text>
</g>

<g fill="none" stroke="#000000" stroke-opacity="1" stroke-width="1" stroke-linecap="square" stroke-linejoin="bevel" transform="matrix(1,0,0,1,32,336)"
font-family="Segoe UI" font-size="10.5" font-weight="400" font-style="normal" 
>
</g>

<g fill="none" stroke="#000000" stroke-opacity="1" stroke-width="1" stroke-linecap="square" stroke-linejoin="bevel" transform="matrix(1,0,0,1,32,512)"
font-family="Segoe UI" font-size="10.5" font-weight="400" font-style="normal" 
>
</g>

<g fill="none" stroke="#e60000" stroke-opacity="1" stroke-width="1" stroke-linecap="round" stroke-linejoin="round" transform="matrix(1,0,0,1,32,512)"
font-family="Segoe UI" font-size="10.5" font-weight="400" font-style="normal" 
>
<polyline fill="none" vector-effect="none" points="0.5,0.5 304.5,0.5 " />
<polyline fill="none" vector-effect="none" points="304.5,0.5 304.5,-263.5 " />
<polyline fill="none" vector-effect="none" points="304.5,-263.5 272.5,-263.5 " />
</g>

<g fill="none" stroke="#e60000" stroke-opacity="1" stroke-width="1" stroke-linecap="round" stroke-linejoin="round" transform="matrix(1,0,0,1,32,512)"
font-family="Arial" font-size="12" font-weight="400" font-style="normal" 
>
<polyline fill="none" vector-effect="none" points="281.5,-268.5 272.5,-263.5 281.5,-258.5 " />
<text fill="#e60000" fill-opacity="1" stroke="none" xml:space="preserve" x="4" y="-5" font-family="Arial" font-size="12" font-weight="400" font-style="normal" 
 >SERVE</text>
</g>

<g fill="none" stroke="#000000" stroke-opacity="1" stroke-width="1" stroke-linecap="square" stroke-linejoin="bevel" transform="matrix(1,0,0,1,32,512)"
font-family="Segoe UI" font-size="10.5" font-weight="400" font-style="normal" 
>
</g>

<g fill="none" stroke="#000000" stroke-opacity="1" stroke-width="1" stroke-linecap="square" stroke-linejoin="bevel" transform="matrix(1,0,0,1,32,544)"
font-family="Segoe UI" font-size="10.5" font-weight="400" font-style="normal" 
>
</g>

<g fill="none" stroke="#e60000" stroke-opacity="1" stroke-width="1" stroke-linecap="round" stroke-linejoin="round" transform="matrix(1,0,0,1,32,544)"
font-family="Segoe UI" font-size="10.5" font-weight="400" font-style="normal" 
>
<polyline fill="none" vector-effect="none" points="0.5,0.5 128.5,0.5 " />
</g>

<g fill="#ffffff" fill-opacity="1" stroke="#e60000" stroke-opacity="1" stroke-width="1" stroke-linecap="round" stroke-linejoin="round" transform="matrix(1,0,0,1,32,544)"
font-family="Arial" font-size="12" font-weight="400" font-style="normal" 
>
<rect x="122.5" y="-5.5" width="12" height="12"/>
</g>

<g fill="#ffffff" fill-opacity="1" stroke="#e60000" stroke-opacity="1" stroke-width="1" stroke-linecap="round" stroke-linejoin="round" transform="matrix(1,0,0,1,32,544)"
font-family="Arial" font-size="12" font-weight="400" font-style="normal" 
>
<text fill="#e60000" fill-opacity="1" stroke="none" xml:space="preserve" x="4" y="-5" font-family="Arial" font-size="12" font-weight="400" font-style="normal" 
 >HUNGRY /</text>
<text fill="#e60000" fill-opacity="1" stroke="none" xml:space="preserve" x="4" y="9" font-family="Arial" font-size="12" font-weight="400" font-style="normal" 
 >  uint8_t n =</text>
</g>

<g fill="#ffffff" fill-opacity="1" stroke="#e60000" stroke-opacity="1" stroke-width="1" stroke-linecap="round" stroke-linejoin="round" transform="matrix(1,0,0,1,32,544)"
font-family="Arial" font-size="12" font-weight="400" font-style="normal" 
>
</g>

<g fill="#ffffff" fill-opacity="1" stroke="#e60000" stroke-opacity="1" stroke-width="1" stroke-linecap="round" stroke-linejoin="round" transform="matrix(1,0,0,1,0,0)"
font-family="Arial" font-size="12" font-weight="400" font-style="normal" 
>
</g>

<g fill="#ffffff" fill-opacity="1" stroke="#e60000" stroke-opacity="1" stroke-width="1" stroke-linecap="round" stroke-linejoin="round" transform="matrix(1,0,0,1,32,544)"
font-family="Arial" font-size="12" font-weight="400" font-style="normal" 
>
</g>

<g fill="none" stroke="#000000" stroke-opacity="1" stroke-width="1" stroke-linecap="square" stroke-linejoin="bevel" transform="matrix(1,0,0,1,32,544)"
font-family="Segoe UI" font-size="10.5" font-weight="400" font-style="normal" 
>
</g>

<g fill="none" stroke="#000000" stroke-opacity="1" stroke-width="1" stroke-linecap="square" stroke-linejoin="bevel" transform="matrix(1,0,0,1,32,576)"
font-family="Segoe UI" font-size="10.5" font-weight="400" font-style="normal" 
>
</g>

<g fill="none" stroke="#e60000" stroke-opacity="1" stroke-width="1" stroke-linecap="round" stroke-linejoin="round" transform="matrix(1,0,0,1,32,576)"
font-family="Segoe UI" font-size="10.5" font-weight="400" font-style="normal" 
>
<polyline fill="none" vector-effect="none" points="0.5,0.5 128.5,0.5 " />
</g>

<g fill="#ffffff" fill-opacity="1" stroke="#e60000" stroke-opacity="1" stroke-width="1" stroke-linecap="round" stroke-linejoin="round" transform="matrix(1,0,0,1,32,576)"
font-family="Arial" font-size="12" font-weight="400" font-style="normal" 
>
<rect x="122.5" y="-5.5" width="12" height="12"/>
</g>

<g fill="#ffffff" fill-opacity="1" stroke="#e60000" stroke-opacity="1" stroke-width="1" stroke-linecap="round" stroke-linejoin="round" transform="matrix(1,0,0,1,32,576)"
font-family="Arial" font-size="12" font-weight="400" font-style="normal" 
>
<text fill="#e60000" fill-opacity="1" stroke="none" xml:space="preserve" x="4" y="-5" font-family="Arial" font-size="12" font-weight="400" font-style="normal" 
 >DONE /</text>
<text fill="#e60000" fill-opacity="1" stroke="none" xml:space="preserve" x="4" y="9" font-family="Arial" font-size="12" font-weight="400" font-style="normal" 
 >  uint8_t n =</text>
</g>

<g fill="#ffffff" fill-opacity="1" stroke="#e60000" stroke-opacity="1" stroke-width="1" stroke-linecap="round" stroke-linejoin="round" transform="matrix(1,0,0,1,32,576)"
font-family="Arial" font-size="12" font-weight="400" font-style="normal" 
>
</g>

<g fill="#ffffff" fill-opacity="1" stroke="#e60000" stroke-opacity="1" stroke-width="1" stroke-linecap="round" stroke-linejoin="round" transform="matrix(1,0,0,1,0,0)"
font-family="Arial" font-size="12" font-weight="400" font-style="normal" 
>
</g>

<g fill="#ffffff" fill-opacity="1" stroke="#e60000" stroke-opacity="1" stroke-width="1" stroke-linecap="round" stroke-linejoin="round" transform="matrix(1,0,0,1,32,576)"
font-family="Arial" font-size="12" font-weight="400" font-style="normal" 
>
</g>

<g fill="none" stroke="#000000" stroke-opacity="1" stroke-width="1" stroke-linecap="square" stroke-linejoin="bevel" transform="matrix(1,0,0,1,32,576)"
font-family="Segoe UI" font-size="10.5" font-weight="400" font-style="normal" 
>
</g>

<g fill="none" stroke="#000000" stroke-opacity="1" stroke-width="1" stroke-linecap="square" stroke-linejoin="bevel" transform="matrix(1,0,0,1,0,0)"
font-family="Segoe UI" font-size="10.5" font-weight="400" font-style="normal" 
>
</g>
</g>
</svg>
